# xmcd
#
# Track frame offsets: 
#        150
#        14308
#        24115
#        37127
#        48887
#        64155
#        76952
#        89677
#        101831
#        116589
#        129995
#        140463
#        165780
#        179127
#        192801
#        208230
#        221078
#        234875
#        249074
#        262146
#
# Disc length: 3656 seconds
#
# Revision: 1
# Processed by: cddbd v1.5.2PL0 Copyright (c) Steve Scherf et al.
# Submitted via: ExactAudioCopyFreeDBPlugin 1.0
#
DISCID=140e4614
DTITLE=Various Artist - Lady Sings The Blues (100 Hits)
DYEAR=2006
DGENRE=Blues
TTITLE0=Ma Rainey - Chain Gang Blues
TTITLE1=Esther Phillips - Cherry Wine
TTITLE2=Dinah Washington - Chewin' Mama Blues
TTITLE3=Ella Fitzgerald - Cryin' Mood
TTITLE4=Lena Horne - How Long Has This Been Going On
TTITLE5=Barrel House Annie - If It Don't Fit (Don't Force It)
TTITLE6=Bessie Smith - I'm Wild About That Thing
TTITLE7=Peggy Lee - I've Got A Right To Sing The Blues
TTITLE8=Virginia Liston - I've Got What It Takes
TTITLE9=Memphis Minnie - My Butcher Man
TTITLE10=Sarah Vaughan - No Smoke Blues
TTITLE11=Billie Holiday - One For My Baby
TTITLE12=Alberta Hunter - Send Me A Man
TTITLE13=Adelaide Hall - The Blues I Love To Sing
TTITLE14=Bessie Smith - Do Your Duty
TTITLE15=Ella Fitzgerald - Sugar Blues
TTITLE16=Alice Moore - Money Tree Man
TTITLE17=Sarah Vaughan - The One I Love Belongs To Someone Else
TTITLE18=Carmen McRae - I Could Write A Book
TTITLE19=Dinah Washington - Do Nothing 'til You Hear From Me
EXTD=
EXTT0=
EXTT1=
EXTT2=
EXTT3=
EXTT4=
EXTT5=
EXTT6=
EXTT7=
EXTT8=
EXTT9=
EXTT10=
EXTT11=
EXTT12=
EXTT13=
EXTT14=
EXTT15=
EXTT16=
EXTT17=
EXTT18=
EXTT19=
PLAYORDER=
